<svg xmlns="http://www.w3.org/2000/svg" width="41.439" height="59.894" viewBox="0 0 41.439 59.894">
  <g id="icon-award" data-name="icon-award">
    <path d="M25.132,60.207,24,65.093a.921.921,0,0,0,.689,1.1.953.953,0,0,0,.208.023.92.92,0,0,0,.9-.713l1.13-4.885a.92.92,0,1,0-1.793-.415" transform="translate(-6.026 -14.952)" fill="#1368bd"/>
    <path d="M17.086,56.829a.92.92,0,0,0-1.1.69l-1.226,5.3a.92.92,0,0,0,.689,1.1.9.9,0,0,0,.208.024.921.921,0,0,0,.9-.713l1.226-5.3a.92.92,0,0,0-.69-1.1" transform="translate(-3.703 -14.276)" fill="#1368bd"/>
    <path d="M40.188,19.972a4.8,4.8,0,0,0-1.863-7.348,4.8,4.8,0,0,0-4.368-6.2,4.8,4.8,0,0,0-6.514-3.878,4.8,4.8,0,0,0-7.473-1.3,4.8,4.8,0,0,0-7.348,1.863,4.8,4.8,0,0,0-6.2,4.368A4.8,4.8,0,0,0,2.545,14a4.8,4.8,0,0,0-1.3,7.472,4.8,4.8,0,0,0,1.864,7.348,4.8,4.8,0,0,0,4.368,6.2,4.841,4.841,0,0,0,.985,2.36,1.556,1.556,0,0,0-.052.154L4.557,54.209A1.792,1.792,0,0,0,6.9,56.3l7.574-2.669,5.633,5.724a1.793,1.793,0,0,0,3.025-.854l1.443-6.24.937,2.649A1.79,1.79,0,0,0,26.9,56.084a1.727,1.727,0,0,0,.3.026,1.794,1.794,0,0,0,1.4-.668l3.255-4.036,5.036,1.232A1.793,1.793,0,0,0,39.006,50.3L34.138,36.56c0-.013-.013-.023-.017-.036a4.832,4.832,0,0,0,.9-2.566,4.8,4.8,0,0,0,3.878-6.514,4.8,4.8,0,0,0,1.294-7.473M20.374,54.517l-4.143-4.21a1.792,1.792,0,0,0-1.874-.433l-5.57,1.963,2.924-12.644a4.78,4.78,0,0,0,2.284-.3,4.791,4.791,0,0,0,6.544,1.95L22.35,45.97Zm14.142-6.151L31.6,47.651a1.8,1.8,0,0,0-1.822.617L27.823,50.69,24.468,41.2a4.777,4.777,0,0,0,4.348-2.873,4.785,4.785,0,0,0,2.194.144ZM32.541,28.2A14.051,14.051,0,1,1,17.485,7.047a14.2,14.2,0,0,1,3.175-.362A14.054,14.054,0,0,1,32.541,28.2" transform="translate(0 0)" fill="#1368bd"/>
    <path d="M29.909,13.429a11.974,11.974,0,0,0-6.377-1.843,12.163,12.163,0,0,0-2.726.311,12.061,12.061,0,1,0,9.1,1.532" transform="translate(-2.876 -2.912)" fill="#1368bd"/>
  </g>
</svg>
