<svg xmlns="http://www.w3.org/2000/svg" xmlns:xlink="http://www.w3.org/1999/xlink" width="34.125" height="46.203" viewBox="0 0 34.125 46.203">
  <path id="icon-agencies-fire" d="M27.4,16.018a4.188,4.188,0,0,1-3.183,4,.213.213,0,0,1-.256-.251C24.386,17.791,26.054,6.93,13.315.047a.379.379,0,0,0-.535.467c.9,2.344,2.372,8.606-3.913,15.112C3.993,20.67,0,25.493,0,31.651A15,15,0,0,0,10.9,46.188a.316.316,0,0,0,.272-.562,8.976,8.976,0,0,1-3.889-6.311A12.062,12.062,0,0,1,8.9,31.087a.254.254,0,0,1,.467.107,4.207,4.207,0,0,0,2.087,3.392.335.335,0,0,0,.487-.339,16,16,0,0,1,4.736-13.461.254.254,0,0,1,.43.194,9.823,9.823,0,0,0,3.506,8.1c2.726,2.24,5.484,5.036,5.484,9.646a8.431,8.431,0,0,1-3.14,6.657.316.316,0,0,0,.292.55A15.793,15.793,0,0,0,34.1,31.446c.285-6.763-2.218-12.406-6.078-15.706a.379.379,0,0,0-.626.278" transform="translate(0 0)" fill="#fff"/>
</svg>
