<svg xmlns="http://www.w3.org/2000/svg" width="30" height="26.251" viewBox="0 0 30 26.251">
  <path id="icon-menu-bars" d="M85.9,181.851a1.036,1.036,0,0,1-1.071-1.071V178.1a1.036,1.036,0,0,1,1.071-1.071h27.857a1.032,1.032,0,0,1,1.071,1.071v2.68a1.032,1.032,0,0,1-1.071,1.071Zm0,10.714a1.036,1.036,0,0,1-1.071-1.071v-2.68a1.036,1.036,0,0,1,1.071-1.071h27.857a1.032,1.032,0,0,1,1.071,1.071v2.68a1.032,1.032,0,0,1-1.071,1.071Zm0,10.714a1.036,1.036,0,0,1-1.071-1.071v-2.68a1.036,1.036,0,0,1,1.071-1.071h27.857a1.032,1.032,0,0,1,1.071,1.071v2.68a1.032,1.032,0,0,1-1.071,1.071Z" transform="translate(-84.826 -177.028)" fill="#fff"/>
</svg>
