<svg xmlns="http://www.w3.org/2000/svg" width="16.587" height="16.587" viewBox="0 0 16.587 16.587">
  <path id="icon-awesome-external-link-square-alt" d="M16.587,4.027V17.06a1.777,1.777,0,0,1-1.777,1.777H1.777A1.777,1.777,0,0,1,0,17.06V4.027A1.777,1.777,0,0,1,1.777,2.25H14.81A1.777,1.777,0,0,1,16.587,4.027Zm-3.258.592H9.183a.889.889,0,0,0-.628,1.517L9.739,7.321,2.5,14.56a.444.444,0,0,0,0,.628l1.149,1.149a.444.444,0,0,0,.628,0L11.516,9.1,12.7,10.282a.889.889,0,0,0,1.517-.628V5.508A.889.889,0,0,0,13.329,4.62Z" transform="translate(0 -2.25)" fill="#1368bd"/>
</svg>
