<svg xmlns="http://www.w3.org/2000/svg" viewBox="0 0 18.383 19">
    <path d="M18.326,12.677,16.51,15.822a.427.427,0,0,1-.58.156L11.8,13.592c-.2-.116-.368-.02-.368.214v4.768a.428.428,0,0,1-.426.426H7.375a.427.427,0,0,1-.425-.426V13.806c0-.234-.166-.33-.368-.212l-4.13,2.384a.427.427,0,0,1-.58-.156L.057,12.677a.426.426,0,0,1,.156-.58L4.341,9.712a.225.225,0,0,0,0-.425L.212,6.9a.425.425,0,0,1-.156-.58L1.872,3.178a.426.426,0,0,1,.58-.156l4.13,2.384c.2.118.368.021.368-.212V.425A.426.426,0,0,1,7.375,0h3.631a.427.427,0,0,1,.426.425V5.194c0,.234.166.33.368.212l4.129-2.384a.425.425,0,0,1,.58.156l1.816,3.144a.425.425,0,0,1-.156.58L14.04,9.288a.225.225,0,0,0,0,.425L18.17,12.1a.427.427,0,0,1,.156.58"/>
</svg>
