<svg xmlns="http://www.w3.org/2000/svg" viewBox="0 0 20.56 17.137">
    <path d="M19.674,1.64H18.459V.534A.523.523,0,0,0,17.949,0H16.5a.523.523,0,0,0-.509.535V1.64H4.566V.534A.523.523,0,0,0,4.057,0H2.611A.523.523,0,0,0,2.1.534V1.64H.886A.91.91,0,0,0,0,2.572V6.221a.91.91,0,0,0,.886.932H2.1V16.6a.528.528,0,0,0,.514.541H4.052a.528.528,0,0,0,.514-.541V14.115H15.994V16.6a.528.528,0,0,0,.514.541h1.436a.528.528,0,0,0,.514-.541V7.152h1.215a.91.91,0,0,0,.886-.932V2.572a.91.91,0,0,0-.886-.932m-7.086.671H14.74L12.6,6.481H10.451Zm-4.667,0h2.152L7.936,6.481H5.784ZM3.27,6.481H1.118l2.137-4.17H5.407Zm12.725,5.393H4.566V7.152H15.994Zm1.275-5.393H15.117l2.137-4.17h2.152Z" transform="translate(0 0.001)"/>
</svg>
