<svg xmlns="http://www.w3.org/2000/svg" width="28.857" height="23.437" viewBox="0 0 28.857 23.437">
  <path id="icon-awesome-twitter" d="M25.891,9.222c.018.256.018.513.018.769,0,7.819-5.951,16.827-16.827,16.827A16.713,16.713,0,0,1,0,24.163a12.235,12.235,0,0,0,1.428.073A11.845,11.845,0,0,0,8.771,21.71a5.925,5.925,0,0,1-5.53-4.1,7.458,7.458,0,0,0,1.117.092,6.255,6.255,0,0,0,1.556-.2,5.915,5.915,0,0,1-4.742-5.8v-.073a5.956,5.956,0,0,0,2.673.751,5.923,5.923,0,0,1-1.831-7.91A16.811,16.811,0,0,0,14.209,10.65,6.677,6.677,0,0,1,14.062,9.3,5.92,5.92,0,0,1,24.3,5.248,11.644,11.644,0,0,0,28.052,3.82a5.9,5.9,0,0,1-2.6,3.259,11.856,11.856,0,0,0,3.406-.915,12.713,12.713,0,0,1-2.966,3.058Z" transform="translate(0 -3.381)" fill="#fff"/>
</svg>
