<svg xmlns="http://www.w3.org/2000/svg" viewBox="0 0 17.502 19">
	<path d="M15.63,402.182h.986a.744.744,0,0,1,.845.675,1.365,1.365,0,0,1-.087.911.676.676,0,0,1-.658.419q-7.968,0-15.936,0a.653.653,0,0,1-.629-.383,1.338,1.338,0,0,1,0-1.241.646.646,0,0,1,.628-.383c.356,0,.713-.005,1.069,0,.12,0,.163-.041.2-.147.358-1.035.724-2.068,1.08-3.1a.229.229,0,0,1,.258-.191q5.431.008,10.861,0a.209.209,0,0,1,.238.169c.358,1.041.725,2.08,1.089,3.119.017.047.035.094.056.149" transform="translate(-0.016 -385.188)"/>
	<path d="M122.648,250.473H112.7l.441-1.219c.236-.653.476-1.3.706-1.959a.179.179,0,0,1,.2-.141q3.63.005,7.26,0c.089,0,.152,0,.19.112.368,1.031.743,2.06,1.115,3.09a1.161,1.161,0,0,1,.029.116" transform="translate(-108.886 -238.751)"/>
	<path d="M172.92,6.565h-6.287c.186-.528.367-1.043.549-1.559q.741-2.1,1.484-4.2A1.171,1.171,0,0,1,170.89.8q.994,2.81,1.986,5.62c.015.042.026.085.044.144" transform="translate(-160.983)"/>
</svg>
