<svg xmlns="http://www.w3.org/2000/svg" xmlns:xlink="http://www.w3.org/1999/xlink" width="39.948" height="41.289" viewBox="0 0 39.948 41.289">
  <path id="icon-agencies-ems" d="M39.824,27.548l-3.946,6.835a.927.927,0,0,1-1.261.338l-8.973-5.183c-.44-.253-.8-.044-.8.464V40.363a.93.93,0,0,1-.926.926h-7.89a.928.928,0,0,1-.923-.926V30c0-.508-.36-.717-.8-.462l-8.976,5.18a.928.928,0,0,1-1.261-.338L.124,27.548a.925.925,0,0,1,.338-1.261l8.973-5.18a.488.488,0,0,0,0-.923L.462,15a.925.925,0,0,1-.338-1.261L4.067,6.906a.925.925,0,0,1,1.261-.338l8.976,5.18c.44.256.8.047.8-.462V.923A.925.925,0,0,1,16.027,0h7.89a.928.928,0,0,1,.926.923V11.287c0,.508.36.717.8.462l8.973-5.18a.925.925,0,0,1,1.261.338l3.946,6.832A.925.925,0,0,1,39.486,15L30.51,20.183a.488.488,0,0,0,0,.923l8.976,5.18a.928.928,0,0,1,.338,1.261" transform="translate(0)" fill="#fff"/>
</svg>
