<svg xmlns="http://www.w3.org/2000/svg" viewBox="0 0 14.033 19">
    <path d="M11.268,6.587A1.722,1.722,0,0,1,9.959,8.234a.087.087,0,0,1-.105-.1c.175-.815.861-5.281-4.378-8.112a.156.156,0,0,0-.22.192c.369.964.976,3.539-1.609,6.214C1.642,8.5,0,10.484,0,13.016a6.17,6.17,0,0,0,4.482,5.978.13.13,0,0,0,.112-.231,3.691,3.691,0,0,1-1.6-2.6,4.96,4.96,0,0,1,.663-3.384.1.1,0,0,1,.192.044,1.73,1.73,0,0,0,.858,1.4.138.138,0,0,0,.2-.139A6.578,6.578,0,0,1,6.856,8.548a.1.1,0,0,1,.177.08,4.039,4.039,0,0,0,1.442,3.33,5.03,5.03,0,0,1,2.255,3.967,3.467,3.467,0,0,1-1.291,2.737.13.13,0,0,0,.12.226,6.5,6.5,0,0,0,4.466-5.956,7.954,7.954,0,0,0-2.5-6.459.156.156,0,0,0-.257.114"/>
</svg>
